<?xml version="1.0" standalone="no"?>
<!DOCTYPE svg PUBLIC "-//W3C//DTD SVG 20010904//EN"
 "http://www.w3.org/TR/2001/REC-SVG-20010904/DTD/svg10.dtd">
<svg version="1.0" xmlns="http://www.w3.org/2000/svg"
 width="260.000000pt" height="260.000000pt" viewBox="0 0 260.000000 260.000000"
 preserveAspectRatio="xMidYMid meet">
<metadata>
Created by potrace 1.11, written by Peter Selinger 2001-2013
</metadata>
<g transform="translate(0.000000,260.000000) scale(0.100000,-0.100000)"
fill="#000000" stroke="none">
<path d="M1182 2364 c-328 -59 -601 -268 -747 -569 -32 -67 -73 -178 -81 -220
-2 -11 -9 -42 -16 -70 -24 -94 -16 -377 13 -505 24 -107 36 -88 -117 -201 -77
-56 -140 -103 -142 -105 -2 -1 -2 -14 0 -27 3 -29 -13 -39 215 130 73 54 93
63 93 41 0 -7 18 -49 41 -92 141 -274 389 -458 690 -511 140 -25 342 -12 461
29 238 81 407 250 482 480 21 65 20 86 -3 86 -12 0 -23 -12 -32 -32 -21 -53
-73 -129 -125 -184 -248 -258 -665 -288 -939 -67 -124 100 -212 246 -261 428
-14 53 -24 98 -22 99 16 13 157 115 373 271 143 104 357 259 476 346 203 148
219 157 250 151 65 -13 128 3 175 44 34 30 52 97 43 154 -23 146 -149 257
-356 311 -100 26 -360 34 -471 13z"/>
<path d="M2293 561 c-139 -64 -121 -271 26 -311 22 -6 49 -8 62 -6 13 3 30 5
36 5 23 2 92 72 103 106 46 139 -95 267 -227 206z"/>
</g>
</svg>
