<?xml version="1.0" encoding="utf-8"?>
<!-- Generator: Adobe Illustrator 16.0.0, SVG Export Plug-In . SVG Version: 6.00 Build 0)  -->
<!DOCTYPE svg PUBLIC "-//W3C//DTD SVG 1.0//EN" "http://www.w3.org/TR/2001/REC-SVG-20010904/DTD/svg10.dtd">
<svg version="1.0" id="Layer_1" xmlns="http://www.w3.org/2000/svg" xmlns:xlink="http://www.w3.org/1999/xlink" x="0px" y="0px"
	 width="24px" height="21.047px" viewBox="0 0 24 21.047" enable-background="new 0 0 24 21.047" xml:space="preserve">
<g>
	<path d="M5.586,12.601c0.09-0.19,0.192-0.402,0.308-0.637c0.116-0.232,0.232-0.465,0.35-0.694s0.229-0.448,0.333-0.655
		c0.104-0.208,0.192-0.384,0.263-0.529L8.689,6.45c0.022-0.049,0.057-0.096,0.104-0.14c0.046-0.045,0.1-0.085,0.16-0.121
		c0.06-0.036,0.123-0.063,0.19-0.084C9.21,6.084,9.278,6.074,9.345,6.074c0.164,0,0.278,0.031,0.342,0.092s0.095,0.137,0.095,0.227
		c0,0.082-0.021,0.169-0.062,0.26c-0.042,0.092-0.088,0.177-0.14,0.255c-0.165,0.28-0.322,0.563-0.474,0.849
		C8.956,8.043,8.805,8.331,8.653,8.62C8.502,8.91,8.35,9.197,8.197,9.483c-0.153,0.286-0.314,0.569-0.482,0.849
		c0.104-0.101,0.216-0.206,0.333-0.314s0.246-0.207,0.384-0.297S8.721,9.558,8.886,9.5C9.05,9.442,9.233,9.413,9.435,9.413
		c0.12,0,0.233,0.011,0.342,0.034s0.204,0.059,0.286,0.109c0.083,0.051,0.148,0.12,0.196,0.208s0.073,0.195,0.073,0.322
		c0,0.168-0.025,0.322-0.076,0.462c-0.05,0.141-0.115,0.273-0.193,0.398c-0.078,0.125-0.164,0.244-0.257,0.357
		c-0.094,0.115-0.182,0.23-0.266,0.348c-0.084,0.118-0.157,0.24-0.219,0.367s-0.1,0.266-0.115,0.415
		c0,0.007-0.001,0.015-0.003,0.021C9.2,12.462,9.2,12.47,9.2,12.477c0,0.075,0.025,0.122,0.075,0.141
		c0.051,0.019,0.115,0.028,0.193,0.028c0.101,0,0.209-0.021,0.325-0.06s0.232-0.091,0.35-0.156s0.235-0.14,0.353-0.222
		s0.229-0.166,0.336-0.252s0.205-0.169,0.294-0.249c0.09-0.081,0.167-0.15,0.23-0.211c0.034-0.029,0.069-0.052,0.106-0.066
		c0.037-0.016,0.073-0.023,0.106-0.023c0.067,0,0.124,0.025,0.171,0.076c0.046,0.051,0.07,0.119,0.07,0.205
		c0,0.078-0.027,0.168-0.081,0.269s-0.147,0.201-0.277,0.303c-0.206,0.179-0.415,0.351-0.627,0.515
		c-0.213,0.165-0.428,0.311-0.645,0.438c-0.216,0.127-0.432,0.228-0.647,0.303c-0.215,0.074-0.425,0.111-0.63,0.111
		c-0.265,0-0.478-0.061-0.638-0.182c-0.161-0.121-0.241-0.312-0.241-0.574c0-0.19,0.033-0.371,0.098-0.541s0.146-0.334,0.241-0.492
		c0.095-0.159,0.197-0.312,0.306-0.46c0.108-0.147,0.203-0.292,0.286-0.435c0.045-0.062,0.079-0.121,0.104-0.176
		s0.037-0.113,0.037-0.177c0-0.056-0.015-0.102-0.045-0.137c-0.03-0.035-0.077-0.053-0.14-0.053c-0.22,0-0.424,0.054-0.611,0.162
		c-0.187,0.109-0.358,0.247-0.515,0.415s-0.303,0.353-0.437,0.552c-0.134,0.2-0.26,0.392-0.375,0.574
		c-0.052,0.082-0.105,0.177-0.16,0.283s-0.11,0.216-0.168,0.327c-0.058,0.112-0.119,0.224-0.182,0.334s-0.13,0.208-0.199,0.294
		c-0.069,0.086-0.142,0.155-0.219,0.207c-0.077,0.053-0.156,0.078-0.238,0.078c-0.131,0-0.232-0.038-0.303-0.114
		c-0.071-0.077-0.106-0.173-0.106-0.289c0-0.086,0.015-0.176,0.045-0.271C5.47,12.856,5.519,12.739,5.586,12.601z"/>
	<path d="M11.889,9.9c0.063-0.104,0.136-0.179,0.218-0.224s0.166-0.067,0.252-0.067c0.143,0,0.264,0.046,0.367,0.138
		c0.104,0.091,0.154,0.208,0.154,0.35c-0.004,0.033-0.008,0.067-0.014,0.101s-0.018,0.067-0.037,0.101
		c-0.053,0.097-0.096,0.179-0.129,0.247c-0.033,0.066-0.064,0.129-0.092,0.188c-0.029,0.058-0.056,0.114-0.082,0.17
		c-0.025,0.057-0.058,0.123-0.095,0.202c-0.045,0.093-0.095,0.195-0.151,0.306c-0.056,0.109-0.109,0.223-0.16,0.339
		c-0.05,0.115-0.093,0.229-0.129,0.342c-0.036,0.111-0.053,0.215-0.053,0.308c0,0.101,0.025,0.167,0.076,0.199
		c0.05,0.031,0.122,0.048,0.216,0.048c0.104,0,0.213-0.022,0.328-0.067c0.113-0.045,0.229-0.103,0.344-0.174
		c0.117-0.071,0.23-0.152,0.342-0.244c0.113-0.091,0.219-0.184,0.316-0.277c0.1-0.093,0.191-0.183,0.275-0.269
		s0.154-0.163,0.209-0.229c0.076-0.071,0.15-0.106,0.225-0.106c0.068,0,0.123,0.03,0.166,0.089c0.043,0.061,0.064,0.137,0.064,0.23
		c0,0.086-0.021,0.177-0.064,0.274c-0.043,0.097-0.113,0.188-0.211,0.274c-0.189,0.194-0.385,0.38-0.582,0.558
		c-0.197,0.177-0.4,0.334-0.607,0.471c-0.207,0.136-0.416,0.245-0.625,0.327c-0.209,0.082-0.42,0.123-0.633,0.123
		c-0.302,0-0.541-0.077-0.714-0.232c-0.173-0.154-0.26-0.396-0.26-0.726c0-0.171,0.024-0.34,0.073-0.504s0.106-0.324,0.174-0.479
		c0.067-0.155,0.138-0.305,0.213-0.448c0.075-0.145,0.138-0.281,0.19-0.412c0.019-0.049,0.051-0.123,0.098-0.225
		c0.046-0.1,0.096-0.203,0.148-0.308C11.758,10.169,11.821,10.039,11.889,9.9z M12.505,8.64c0-0.086,0.016-0.175,0.047-0.266
		c0.031-0.092,0.08-0.175,0.143-0.25c0.064-0.075,0.143-0.136,0.238-0.185c0.096-0.048,0.209-0.073,0.34-0.073
		c0.217,0,0.367,0.042,0.453,0.126c0.086,0.084,0.129,0.19,0.129,0.317c0,0.071-0.014,0.149-0.043,0.235
		c-0.027,0.086-0.068,0.165-0.125,0.238s-0.129,0.134-0.219,0.182c-0.09,0.049-0.195,0.073-0.318,0.073
		c-0.232,0-0.395-0.036-0.488-0.109C12.568,8.855,12.516,8.759,12.505,8.64z"/>
	<path d="M16.835,12.708c-0.016,0.115-0.051,0.226-0.106,0.33c-0.057,0.104-0.125,0.197-0.208,0.277
		c-0.082,0.08-0.175,0.144-0.279,0.19s-0.213,0.07-0.325,0.07c-0.168,0-0.303-0.056-0.403-0.165
		c-0.101-0.11-0.151-0.246-0.151-0.406c0-0.124,0.026-0.241,0.078-0.354c0.053-0.111,0.123-0.212,0.21-0.3
		c0.088-0.087,0.188-0.157,0.3-0.21c0.112-0.052,0.229-0.078,0.348-0.078c0.168,0,0.301,0.052,0.397,0.157
		c0.098,0.104,0.146,0.236,0.146,0.397c0,0.015,0,0.028,0,0.042C16.84,12.672,16.838,12.689,16.835,12.708z M19.474,6.763
		c-0.206,0.392-0.393,0.744-0.561,1.056c-0.168,0.312-0.332,0.615-0.493,0.91c-0.16,0.295-0.325,0.599-0.493,0.911
		c-0.168,0.312-0.354,0.664-0.56,1.056c-0.057,0.108-0.137,0.189-0.241,0.244c-0.104,0.054-0.201,0.081-0.291,0.081
		c-0.075,0-0.136-0.017-0.183-0.048s-0.069-0.081-0.069-0.148c0-0.045,0.009-0.088,0.027-0.129c0.112-0.261,0.217-0.503,0.314-0.726
		c0.097-0.222,0.189-0.436,0.276-0.641c0.088-0.206,0.173-0.405,0.255-0.6c0.083-0.194,0.168-0.393,0.256-0.597
		c0.087-0.204,0.18-0.417,0.276-0.641c0.098-0.224,0.202-0.467,0.314-0.729c0.029-0.067,0.071-0.127,0.126-0.179
		c0.054-0.052,0.116-0.096,0.188-0.132c0.071-0.035,0.146-0.062,0.224-0.078c0.079-0.017,0.157-0.025,0.235-0.025
		c0.12,0,0.222,0.022,0.306,0.067c0.084,0.044,0.126,0.116,0.126,0.213C19.507,6.67,19.497,6.715,19.474,6.763z"/>
</g>
<g>
	<path d="M24,10.578c-0.229,0.829-0.362,1.7-0.701,2.481c-1.291,2.97-3.671,4.752-6.638,5.823c-2.301,0.831-4.679,0.945-7.083,0.597
		c-0.871-0.126-1.655-0.128-2.484,0.345c-1.497,0.854-3.154,1.239-4.892,1.224c-0.36-0.003-0.667-0.052-0.845-0.412
		c-0.179-0.364-0.006-0.627,0.195-0.92c0.659-0.961,1.293-1.94,1.901-2.858c-0.658-0.753-1.29-1.363-1.79-2.065
		C-0.97,11.095-0.433,6.489,2.969,3.356C5.05,1.44,7.528,0.408,10.322,0.102c3.5-0.385,6.746,0.307,9.627,2.381
		c2.027,1.46,3.412,3.383,3.894,5.884C23.902,8.676,23.949,8.988,24,9.298V10.578z M3.695,19.423
		c0.103-0.01,0.216,0.004,0.309-0.032c1.096-0.438,2.184-0.897,3.284-1.321c0.333-0.128,0.704-0.236,1.052-0.221
		c0.724,0.032,1.444,0.16,2.167,0.234c3.209,0.331,6.19-0.29,8.786-2.275c2.037-1.558,3.294-3.589,3.188-6.234
		c-0.097-2.453-1.334-4.339-3.253-5.785c-2.336-1.759-5.012-2.424-7.903-2.285c-2.707,0.13-5.149,0.979-7.189,2.794
		C2.478,5.777,1.458,7.602,1.499,9.887c0.043,2.422,1.201,4.286,3.026,5.789c0.582,0.479,0.663,0.732,0.343,1.414
		C4.5,17.871,4.093,18.635,3.695,19.423"/>
</g>
</svg>
